<?xml version="1.0" encoding="utf-8"?>
<!-- Generator: Adobe Illustrator 15.0.0, SVG Export Plug-In . SVG Version: 6.00 Build 0)  -->
<!DOCTYPE svg PUBLIC "-//W3C//DTD SVG 1.1//EN" "http://www.w3.org/Graphics/SVG/1.1/DTD/svg11.dtd">
<svg version="1.1" id="Capa_1" xmlns="http://www.w3.org/2000/svg" xmlns:xlink="http://www.w3.org/1999/xlink" x="0px" y="0px"
	 width="545px" height="209px" viewBox="33.5 293.5 545 209" enable-background="new 33.5 293.5 545 209" xml:space="preserve">
<g>
	<path fill="#010000" d="M143.093,317.395c0,2.522,0,4.969-0.068,7.645c0,0.611-0.467,0.84-1.002,0.84h-0.734
		c-0.134,0-0.134,0.076-0.134,0.153v0.61c0,0.23,0,0.306,0.199,0.306c0.269,0,0.869-0.076,3.479-0.076
		c2.607,0,3.21,0.076,3.21,0.076c0.401,0,0.401-0.076,0.401-0.229v-0.688c0-0.077,0-0.153-0.201-0.153h-1.004
		c-0.335,0-0.534-0.535-0.601-1.07c-0.068-0.306-0.134-3.287-0.134-4.814v-1.377h0.87c1.136,0,2.206,1.989,3.009,3.746
		c0.401,0.917,1.938,3.974,2.674,4.585c0.735-0.076,1.672-0.076,2.34-0.076c1.939,0,2.542,0.076,2.742,0.076s0.2-0.076,0.2-0.229
		v-0.688c0-0.077,0-0.153-0.2-0.153c-0.535,0-1.472-0.229-1.806-0.611c-0.468-0.612-1.806-2.599-1.939-2.829
		c-0.201-0.305-1.537-2.675-1.873-3.058c-0.467-0.611-0.869-1.146-1.671-1.375v-0.229c2.207-0.23,4.547-1.683,4.547-5.044
		c0-0.994-0.535-1.988-1.403-2.829c-1.002-0.994-2.476-1.757-4.349-1.757c-1.003,0-3.208,0.076-4.613,0.076
		c-2.675,0-3.41-0.076-3.679-0.076c-0.065,0-0.133,0.076-0.133,0.152v0.765c0,0.075,0.067,0.153,0.133,0.153h1.003
		c0.335,0,0.668,0.458,0.668,1.299c0.068,0.765,0.068,2.446,0.068,4.356L143.093,317.395L143.093,317.395z M146.637,310.058
		L146.637,310.058c0.066-0.306,0.132-0.611,0.333-0.764c0.134-0.155,0.468-0.23,0.937-0.23c0.735,0,1.806,0.306,2.675,1.147
		c0.602,0.61,0.937,1.757,0.937,2.98s-0.734,4.586-4.012,4.586c-0.202,0-0.469,0-0.938-0.078L146.637,310.058L146.637,310.058z
		 M164.759,309.139L164.759,309.139l3.277,0.078c0.668,0,1.338,0.383,1.872,0.688c0.534,0.382,2.741,2.751,2.876,2.981
		c0.066,0.153,0.2,0.153,0.335,0.076l0.4-0.229c0.067-0.077,0.067-0.077,0.067-0.23c-0.133-0.229-0.938-3.897-1.003-4.204
		c-0.068-0.076-0.068-0.152-0.202-0.152s-0.602,0.076-1.003,0.076h-8.692c-2.208,0-3.076-0.076-3.61-0.076
		c-0.201,0-0.201,0.076-0.201,0.152v0.689c0,0.15,0,0.228,0.134,0.228h0.937c0.668,0,0.937,0.153,1.002,0.995
		c0.067,0.305,0.134,3.514,0.134,5.731v8.789c0,0.919-0.134,1.147-1.271,1.147h-0.734c-0.201,0-0.269,0.076-0.269,0.229v0.534
		c0,0.23,0.066,0.306,0.269,0.306c0.199,0,0.534-0.076,1.07-0.076c0.467,0,1.137,0,2.073,0c4.28,0,6.888,0,8.492,0
		s2.14,0.076,2.273,0.076c0.269,0,0.469-0.153,0.535-0.458l1.069-3.975c0.066-0.077,0-0.152-0.066-0.152l-0.4-0.307
		c-0.135,0-0.2,0-0.268,0.078c-0.536,0.688-1.872,2.292-2.541,2.828c-0.669,0.535-1.404,0.841-1.873,0.917
		c-0.536,0-1.539,0.076-1.938,0.076c-1.271,0-1.74-0.076-2.073-0.305c-0.334-0.153-0.602-0.611-0.602-1.989
		c0-0.458-0.135-2.979-0.135-4.432v-1.605c1.068,0,1.872,0.076,2.475,0.229c0.534,0.077,1.137,0.382,1.403,0.917
		c0.134,0.306,0.401,0.918,0.469,1.3c0.067,0.229,0.134,0.229,0.201,0.229l0.601-0.153c0.135,0,0.201-0.077,0.201-0.23
		c-0.066-0.536-0.134-1.757-0.134-2.98c0-0.917,0-2.293,0.067-2.753c0-0.152-0.067-0.152-0.202-0.152l-0.667-0.076
		c-0.134,0-0.202,0-0.202,0.228c0,0.46-0.333,1.225-0.601,1.606c-0.335,0.458-0.668,0.689-1.137,0.841
		c-0.269,0.077-1.338,0.153-2.475,0.153L164.759,309.139L164.759,309.139z M176.795,320.987L176.795,320.987
		c-0.134,0-0.2,0-0.2,0.153l-0.4,5.045c-0.066,0.229,0.067,0.382,0.333,0.382c0.201,0,0.268,0,0.469-0.305
		c0.134-0.229,0.199-0.459,0.334-0.459c0.134,0,0.335,0.076,0.602,0.306c1.004,0.764,2.207,1.146,4.414,1.146
		c3.278,0,5.417-2.598,5.417-5.809c0-1.834-0.401-3.057-1.337-3.974c-1.07-0.918-2.006-1.605-3.21-1.988
		c-1.204-0.381-2.608-0.993-3.208-1.681c-0.669-0.689-0.669-1.452-0.669-2.446c0-0.688,0.736-2.368,2.607-2.368
		c1.138,0,1.872,0.381,2.476,1.069c0.869,0.993,1.27,1.986,1.537,2.751c0.065,0.229,0.201,0.229,0.335,0.229l0.535-0.229
		c0.066,0,0.133-0.076,0.133-0.153l-0.401-4.509c-0.065-0.153-0.065-0.459-0.267-0.459c-0.134,0-0.27,0.076-0.335,0.153
		l-0.333,0.382c-0.134,0.152-0.335,0.229-0.604,0.152c-0.467-0.228-1.47-0.534-3.275-0.534c-1.472,0-2.407,0.382-3.543,1.223
		c-1.473,1.223-1.873,2.293-1.873,3.898c0,1.529,0.4,2.905,1.27,3.745c1.271,1.146,2.811,1.988,3.544,2.293
		c3.21,1.299,3.611,1.911,3.611,4.051c0,2.14-1.872,2.981-3.076,2.981s-2.408-0.611-3.076-1.834
		c-0.603-0.995-0.937-2.142-1.004-2.981c0-0.152-0.065-0.152-0.2-0.152L176.795,320.987L176.795,320.987z M196.123,315.943
		L196.123,315.943c0,0.458,0,8.561-0.068,9.097c-0.064,0.458-0.334,0.84-0.869,0.84h-1.204c-0.199,0-0.199,0.076-0.199,0.229v0.458
		c0,0.228,0,0.381,0.199,0.381c0.335,0,1.404-0.076,4.013-0.076c2.741,0,3.544,0.076,3.812,0.076c0.202,0,0.202-0.076,0.202-0.229
		v-0.611c0-0.153,0-0.229-0.202-0.229h-1.136c-0.604,0-0.802-0.458-0.87-1.07c0-0.382,0-7.795,0-8.179v-7.184h0.803
		c0.603,0,2.81,0.076,3.41,0.458c0.603,0.687,1.538,1.987,2.074,2.981c0.134,0.153,0.201,0.229,0.268,0.229l0.535-0.229
		c0.067,0,0.133-0.152,0.067-0.229c-0.201-1.375-0.669-4.662-0.736-5.198c0-0.381-0.134-0.458-0.267-0.458
		c-0.2,0-0.334,0.153-0.603,0.382c-0.268,0.306-1.205,0.688-1.806,0.688c-1.004,0.078-2.072,0.153-4.749,0.153h-1.47
		c-2.542,0-3.544-0.076-4.883-0.153c-0.868-0.076-1.338-0.306-1.604-0.688c-0.269-0.305-0.334-0.382-0.468-0.382
		c-0.2,0-0.333,0.078-0.401,0.458c-0.067,0.536-0.937,3.975-1.205,5.122c0,0.076,0,0.153,0.134,0.229l0.535,0.229
		c0.067,0,0.201-0.077,0.268-0.229c0.602-0.917,1.672-2.522,2.207-2.981c1.069-0.381,2.542-0.381,3.344-0.381h0.87V315.943
		L196.123,315.943z M214.712,319.612L214.712,319.612c0.268,0.995,1.27,4.356,1.471,5.273c0.134,0.688-0.066,0.994-0.736,0.994
		h-0.668c-0.134,0-0.199,0.076-0.199,0.229v0.458c0,0.228,0.065,0.381,0.334,0.381c0.468,0,1.336-0.076,3.343-0.076
		c3.209,0,3.678,0.076,4.146,0.076c0.199,0,0.268-0.229,0.268-0.381v-0.458c0-0.153-0.068-0.229-0.202-0.229h-0.802
		c-0.401,0-1.002-0.382-1.471-1.223c-0.335-0.688-1.939-5.581-2.475-7.643c-0.468-1.683-2.407-7.567-2.875-9.25
		c-0.067-0.306-0.134-0.459-0.267-0.459c-0.135,0-0.202,0.153-0.335,0.23c-0.401,0.458-2.007,1.146-2.742,1.375
		c-0.2,0-0.268,0.153-0.268,0.228c0,0.078,0.067,0.23,0.134,0.308c0.201,0.305,0.067,0.611,0,0.917
		c-0.199,0.688-2.206,6.344-2.406,6.879c-0.804,2.292-2.542,6.878-2.942,7.414c-0.469,0.841-1.068,1.223-1.672,1.223h-0.602
		c-0.201,0-0.201,0.076-0.201,0.229v0.458c0,0.228,0,0.381,0.201,0.381c0.335,0,0.868-0.076,2.675-0.076
		c2.007,0,3.009,0.076,3.343,0.076c0.201,0,0.201-0.076,0.201-0.306v-0.61c0-0.077,0-0.153-0.269-0.153h-0.868
		c-0.735,0-0.938-0.688-0.938-1.223c0-0.841,1.204-4.434,1.405-5.044h5.416V319.612z M209.63,318.618L209.63,318.618
		c0.201-0.687,2.341-6.878,2.407-7.261c0.134-0.229,0.2-0.306,0.334-0.306s0.134,0.153,0.268,0.536
		c0.2,0.688,1.604,6.191,1.872,7.031H209.63L209.63,318.618z M223.673,316.783L223.673,316.783c0,3.439,0.134,5.198,0.534,6.345
		c0.602,1.681,1.672,2.904,2.876,3.439c1.003,0.458,2.606,0.687,3.745,0.687c1.604,0,3.275-0.611,4.414-1.681
		c1.27-1.146,1.938-2.828,2.071-4.967c0.067-1.072,0.136-5.657,0.136-6.04c0-0.383,0-3.975,0.065-4.355
		c0-0.23,0.067-0.995,1.003-0.995h0.802c0.135,0,0.135-0.078,0.135-0.228v-0.613c0-0.152,0-0.228-0.268-0.228
		c-0.201,0-1.003,0.076-2.341,0.076c-1.672,0-2.809-0.076-3.008-0.076c-0.202,0-0.202,0.076-0.202,0.152v0.689
		c0,0.15,0,0.228,0.202,0.228h0.733c0.469,0,0.87,0.458,0.938,1.146c0.133,0.611,0.334,3.516,0.334,5.732v4.052
		c0,1.91-0.536,3.362-1.539,4.28c-0.668,0.688-2.006,1.146-2.941,1.146c-1.07,0-2.274-0.382-3.077-1.453
		c-0.534-0.765-0.734-1.911-0.803-3.133c0-0.84-0.066-4.204-0.066-5.579v-1.758c0-1.299,0-3.134,0-3.438
		c0.066-0.459,0.468-0.995,1.338-0.995h0.803c0.2,0,0.2-0.078,0.2-0.153v-0.688c0-0.152,0-0.228-0.2-0.228
		c-0.268,0-1.472,0.076-3.612,0.076c-2.607,0-3.81-0.076-4.078-0.076c-0.201,0-0.201,0.076-0.201,0.228v0.613
		c0,0.15,0,0.228,0.201,0.228h1.138c0.534,0,0.668,0.458,0.668,1.375L223.673,316.783L223.673,316.783z M242.598,317.395
		L242.598,317.395c0,2.522,0,4.969-0.067,7.645c0,0.611-0.4,0.84-0.936,0.84h-0.804c-0.065,0-0.065,0.076-0.065,0.153v0.61
		c0,0.23,0,0.306,0.201,0.306c0.268,0,0.802-0.076,3.41-0.076c2.607,0,3.21,0.076,3.276,0.076c0.334,0,0.401-0.076,0.401-0.229
		v-0.688c0-0.077-0.067-0.153-0.201-0.153h-1.002c-0.4,0-0.604-0.535-0.67-1.07c0-0.306-0.134-3.287-0.134-4.814v-1.377h0.869
		c1.205,0,2.207,1.989,3.01,3.746c0.468,0.917,1.939,3.974,2.675,4.585c0.736-0.076,1.672-0.076,2.408-0.076
		c1.873,0,2.541,0.076,2.742,0.076c0.134,0,0.134-0.076,0.134-0.229v-0.688c0-0.077,0-0.153-0.134-0.153
		c-0.603,0-1.538-0.229-1.805-0.611c-0.536-0.612-1.873-2.599-2.008-2.829c-0.2-0.305-1.539-2.675-1.872-3.058
		c-0.469-0.611-0.87-1.146-1.604-1.375v-0.229c2.139-0.23,4.48-1.683,4.48-5.044c0-0.994-0.535-1.988-1.405-2.829
		c-1.003-0.994-2.407-1.757-4.346-1.757c-1.004,0-3.211,0.076-4.548,0.076c-2.742,0-3.477-0.076-3.678-0.076
		c-0.135,0-0.201,0.076-0.201,0.152v0.765c0,0.075,0.065,0.153,0.201,0.153h0.936c0.4,0,0.669,0.458,0.735,1.299
		c0,0.765,0,2.446,0,4.356V317.395L242.598,317.395z M246.208,310.058L246.208,310.058c0-0.306,0.066-0.611,0.267-0.764
		c0.203-0.155,0.47-0.23,0.938-0.23c0.733,0,1.804,0.306,2.74,1.147c0.535,0.61,0.937,1.757,0.937,2.98s-0.802,4.586-4.011,4.586
		c-0.268,0-0.535,0-1.004-0.078L246.208,310.058L246.208,310.058z M267.673,319.612L267.673,319.612
		c0.268,0.995,1.204,4.356,1.472,5.273c0.135,0.688-0.065,0.994-0.734,0.994h-0.737c-0.065,0-0.133,0.076-0.133,0.229v0.458
		c0,0.228,0.067,0.381,0.267,0.381c0.537,0,1.405-0.076,3.413-0.076c3.143,0,3.677,0.076,4.146,0.076c0.2,0,0.2-0.229,0.2-0.381
		v-0.458c0-0.153,0-0.229-0.134-0.229h-0.869c-0.334,0-1.004-0.382-1.404-1.223c-0.333-0.688-1.938-5.581-2.541-7.643
		c-0.47-1.683-2.341-7.567-2.875-9.25c-0.069-0.306-0.069-0.459-0.269-0.459c-0.069,0-0.202,0.153-0.269,0.23
		c-0.401,0.458-2.009,1.146-2.811,1.375c-0.2,0-0.2,0.153-0.2,0.228c0,0.078,0.067,0.23,0.134,0.308c0.2,0.305,0.066,0.611,0,0.917
		c-0.268,0.688-2.205,6.344-2.407,6.879c-0.869,2.292-2.606,6.878-2.942,7.414c-0.466,0.841-1.069,1.223-1.671,1.223h-0.668
		c-0.134,0-0.134,0.076-0.134,0.229v0.458c0,0.228,0,0.381,0.134,0.381c0.401,0,0.937-0.076,2.741-0.076
		c2.006,0,3.009,0.076,3.344,0.076c0.201,0,0.201-0.076,0.201-0.306v-0.61c0-0.077,0-0.153-0.268-0.153h-0.869
		c-0.736,0-0.938-0.688-0.938-1.223c0-0.841,1.203-4.434,1.405-5.044h5.415V319.612z M262.591,318.618L262.591,318.618
		c0.201-0.687,2.275-6.878,2.408-7.261c0.064-0.229,0.134-0.306,0.333-0.306c0.067,0,0.134,0.153,0.269,0.536
		c0.133,0.688,1.604,6.191,1.804,7.031H262.591L262.591,318.618z M291.548,321.599L291.548,321.599h-0.067
		c-0.268-0.382-3.879-5.198-4.213-5.656c-0.733-0.917-5.617-7.262-5.751-7.415c-0.2-0.229-0.4-0.38-0.734-0.38
		c-0.27,0-1.005,0.076-1.873,0.076c-1.271,0-2.072,0-2.542-0.076c-0.469,0-0.667,0-0.802,0c-0.134,0-0.134,0.076-0.134,0.152v0.689
		c0,0.075,0,0.228,0.134,0.228h0.602c1.271,0,2.141,1.528,2.141,3.057v2.37c0,3.898-0.202,8.102-0.202,8.56
		c-0.133,1.836-0.533,2.676-1.069,2.676h-0.869c-0.134,0-0.134,0.076-0.134,0.153v0.688c0,0.153,0,0.229,0.134,0.229
		c0.2,0,1.938-0.076,2.675-0.076c1.204,0,2.674,0.076,2.875,0.076s0.201-0.076,0.201-0.229v-0.611c0-0.153,0-0.229-0.201-0.229
		h-0.602c-1.004,0-1.473-0.84-1.537-2.37c0-0.993-0.202-4.203-0.202-6.419v-5.275h0.202c0.533,0.841,3.943,5.35,4.346,5.885
		c0.468,0.612,2.474,3.134,4.213,5.351c1.538,1.834,2.742,3.286,3.144,3.669c0.268,0.306,0.602,0.458,0.935,0.458
		c0.336,0,0.403-0.458,0.403-0.917v-4.434c0-3.516,0.4-9.477,0.535-11.236c0.065-0.917,0.334-1.375,0.735-1.375h0.735
		c0.065,0,0.133-0.078,0.133-0.228v-0.613c0-0.152-0.067-0.228-0.266-0.228c-0.27,0-0.869,0.076-2.343,0.076
		c-1.873,0-2.606-0.076-2.875-0.076c-0.2,0-0.268,0.076-0.268,0.152v0.689c0,0.15,0.067,0.228,0.201,0.228h0.734
		c0.602,0,1.204,0.383,1.337,0.995c0.066,0.458,0.2,2.98,0.2,4.05c0.067,1.299,0.067,2.599,0.067,4.893v2.443H291.548z
		 M302.647,315.943L302.647,315.943c0,0.458,0,8.561,0,9.097c-0.066,0.458-0.4,0.84-0.869,0.84h-1.27
		c-0.134,0-0.134,0.076-0.134,0.229v0.458c0,0.228,0,0.381,0.2,0.381c0.335,0,1.404-0.076,4.013-0.076
		c2.741,0,3.543,0.076,3.746,0.076c0.266,0,0.266-0.076,0.266-0.229v-0.611c0-0.153,0-0.229-0.266-0.229h-1.07
		c-0.604,0-0.803-0.458-0.869-1.07c0-0.382,0-7.795,0-8.179v-7.184h0.803c0.535,0,2.74,0.076,3.408,0.458
		c0.603,0.687,1.539,1.987,2.072,2.981c0.137,0.153,0.137,0.229,0.268,0.229l0.535-0.229c0.066,0,0.135-0.152,0.066-0.229
		c-0.199-1.375-0.668-4.662-0.732-5.198c-0.068-0.381-0.137-0.458-0.27-0.458c-0.201,0-0.334,0.153-0.603,0.382
		c-0.266,0.306-1.27,0.688-1.807,0.688c-1,0.078-2.072,0.153-4.747,0.153h-1.472c-2.54,0-3.611-0.076-4.88-0.153
		c-0.938-0.076-1.404-0.306-1.672-0.688c-0.201-0.305-0.269-0.382-0.47-0.382c-0.134,0-0.268,0.078-0.334,0.458
		c-0.133,0.536-0.936,3.975-1.203,5.122c0,0.076,0,0.153,0.134,0.229l0.535,0.229c0.066,0,0.134-0.077,0.2-0.229
		c0.669-0.917,1.74-2.522,2.274-2.981c1.07-0.381,2.541-0.381,3.276-0.381h0.869V315.943L302.647,315.943z M320.904,309.139
		L320.904,309.139l3.209,0.078c0.668,0,1.404,0.383,1.873,0.688c0.603,0.382,2.81,2.751,2.941,2.981
		c0.069,0.153,0.201,0.153,0.268,0.076l0.402-0.229c0.133-0.077,0.133-0.077,0.065-0.23c-0.065-0.229-0.868-3.897-1.002-4.204
		c0-0.076-0.067-0.152-0.2-0.152c-0.136,0-0.603,0.076-1.005,0.076h-8.625c-2.272,0-3.145-0.076-3.68-0.076
		c-0.133,0-0.133,0.076-0.133,0.152v0.689c0,0.15,0,0.228,0.066,0.228h1.004c0.668,0,0.936,0.153,1.002,0.995
		c0,0.305,0.067,3.514,0.067,5.731v8.789c0,0.919-0.067,1.147-1.205,1.147h-0.733c-0.201,0-0.269,0.076-0.269,0.229v0.534
		c0,0.23,0.066,0.306,0.199,0.306c0.269,0,0.535-0.076,1.068-0.076c0.471,0,1.207,0,2.076,0c4.276,0,6.954,0,8.491,0
		c1.605,0,2.14,0.076,2.273,0.076c0.334,0,0.469-0.153,0.535-0.458l1.137-3.975c0-0.077,0-0.152-0.133-0.152l-0.402-0.307
		c-0.065,0-0.133,0-0.268,0.078c-0.469,0.688-1.873,2.292-2.476,2.828c-0.668,0.535-1.403,0.841-1.873,0.917
		c-0.534,0-1.604,0.076-2.006,0.076c-1.203,0-1.67-0.076-2.069-0.305c-0.336-0.153-0.604-0.611-0.604-1.989
		c0-0.458-0.133-2.979-0.133-4.432v-1.605c1.137,0,1.873,0.076,2.539,0.229c0.471,0.077,1.07,0.382,1.338,0.917
		c0.133,0.306,0.4,0.918,0.537,1.3c0,0.229,0.065,0.229,0.201,0.229l0.535-0.153c0.131,0,0.266-0.077,0.196-0.23
		c0-0.536-0.133-1.757-0.133-2.98c0-0.917,0-2.293,0.066-2.753c0.065-0.152-0.066-0.152-0.201-0.152l-0.666-0.076
		c-0.068,0-0.203,0-0.203,0.228c0,0.46-0.268,1.225-0.535,1.606c-0.397,0.458-0.731,0.689-1.137,0.841
		c-0.266,0.077-1.402,0.153-2.539,0.153L320.904,309.139L320.904,309.139z M347.786,316.325L347.786,316.325
		c0-1.605,0-6.878,0-7.186c1.138,0,3.746,0.078,4.347,0.23c0.602,0.153,1.271,0.688,1.737,1.222
		c1.005,1.147,1.605,1.989,1.939,2.447c0.137,0.229,0.201,0.305,0.336,0.229l0.467-0.305c0.066,0,0.133-0.076,0.066-0.229
		l-0.937-4.281c-0.063-0.229-0.135-0.383-0.268-0.383c-0.199,0-0.736,0.078-1.271,0.078c-1.202,0-7.69,0.076-8.024,0.076
		c-3.01,0-3.945-0.076-4.213-0.076c-0.066,0-0.201,0.076-0.201,0.152v0.765c0,0.075,0.135,0.153,0.268,0.153h1.004
		c0.668,0,1.005,0.23,1.005,0.764c0,0.23,0.065,3.975,0.065,5.122v1.834c0,4.509-0.065,7.872-0.135,8.408
		c0,0.381-0.201,0.535-0.736,0.535h-0.869c-0.065,0-0.133,0-0.133,0.076v0.765c0,0.153,0,0.229,0.133,0.229
		c0.334,0,1.271-0.076,3.746-0.076c2.541,0,3.545,0.076,3.744,0.076c0.201,0,0.201-0.076,0.201-0.229v-0.688
		c0-0.153-0.066-0.153-0.201-0.153h-1.473c-0.332,0-0.601-0.153-0.601-0.84c0-0.383,0-4.817,0-5.581v-0.994
		c1.002,0,1.873,0,2.677,0.153c0.467,0.152,0.934,0.612,1.202,1.071c0.136,0.229,0.4,1.07,0.468,1.299
		c0,0.153,0.135,0.229,0.201,0.153l0.532-0.076c0.138-0.077,0.203-0.077,0.203-0.23c-0.065-0.534-0.133-1.833-0.133-2.751
		c0-0.383,0-2.522,0.066-2.98c0-0.153-0.066-0.23-0.201-0.23h-0.535c-0.135,0-0.201,0.077-0.201,0.153
		c-0.133,0.535-0.266,1.069-0.533,1.453c-0.403,0.535-0.871,0.841-1.272,0.917c-0.467,0.077-1.472,0.153-2.474,0.153v-1.225H347.786
		z M365.174,319.612L365.174,319.612c0.268,0.995,1.27,4.356,1.471,5.273c0.135,0.688-0.066,0.994-0.734,0.994h-0.67
		c-0.133,0-0.199,0.076-0.199,0.229v0.458c0,0.228,0.066,0.381,0.335,0.381c0.467,0,1.336-0.076,3.344-0.076
		c3.209,0,3.676,0.076,4.146,0.076c0.199,0,0.267-0.229,0.267-0.381v-0.458c0-0.153-0.066-0.229-0.201-0.229h-0.803
		c-0.398,0-1-0.382-1.47-1.223c-0.336-0.688-1.938-5.581-2.477-7.643c-0.467-1.683-2.408-7.567-2.875-9.25
		c-0.066-0.306-0.133-0.459-0.266-0.459c-0.136,0-0.201,0.153-0.339,0.23c-0.397,0.458-2.004,1.146-2.741,1.375
		c-0.197,0-0.267,0.153-0.267,0.228c0,0.078,0.068,0.23,0.201,0.308c0.135,0.305,0,0.611-0.066,0.917
		c-0.2,0.688-2.207,6.344-2.407,6.879c-0.802,2.292-2.541,6.878-2.943,7.414c-0.467,0.841-1.066,1.223-1.672,1.223h-0.601
		c-0.133,0-0.2,0.076-0.2,0.229v0.458c0,0.228,0.067,0.381,0.2,0.381c0.335,0,0.867-0.076,2.675-0.076
		c2.006,0,3.01,0.076,3.344,0.076c0.201,0,0.201-0.076,0.201-0.306v-0.61c0-0.077,0-0.153-0.267-0.153h-0.871
		c-0.735,0-0.938-0.688-0.938-1.223c0-0.841,1.205-4.434,1.404-5.044h5.419V319.612z M360.092,318.618L360.092,318.618
		c0.199-0.687,2.34-6.878,2.405-7.261c0.136-0.229,0.201-0.306,0.337-0.306c0.133,0,0.133,0.153,0.268,0.536
		c0.199,0.688,1.602,6.191,1.871,7.031H360.092L360.092,318.618z M376.877,317.165L376.877,317.165c0-0.305,0.067-6.954,0.133-7.337
		c0.201,0.306,2.475,6.193,2.942,7.415c0.134,0.536,3.408,8.637,3.478,8.867c0.135,0.229,0.266,0.458,0.467,0.458
		c0.27,0,0.469-0.382,0.602-0.612c0.066-0.229,2.273-6.116,2.81-7.261c0.469-1.147,3.211-8.256,3.479-8.714h0.134v8.025
		c0,1.833-0.066,6.65-0.134,6.956c0,0.688-0.268,0.917-0.668,0.917h-1.403c-0.136,0-0.136,0-0.136,0.153v0.688
		c0,0.153,0,0.229,0.136,0.229c0.336,0,1.336-0.076,3.811-0.076c2.943,0,3.412,0.076,3.68,0.076c0.199,0,0.199-0.076,0.199-0.229
		v-0.688c0-0.077,0-0.153-0.133-0.153h-1.203c-0.338,0-0.604-0.458-0.604-1.453c0-0.459-0.066-6.267-0.066-6.802
		c0-0.534,0-6.955,0-7.413c0-0.536,0.066-0.995,0.602-0.995h1.068c0.203,0,0.203-0.078,0.203-0.228v-0.613
		c0-0.152,0-0.228-0.135-0.228c-0.269,0-1.068,0.076-4.949,0.076c-0.734,0-1.068,0-1.137,0.305
		c-0.133,0.536-2.607,6.803-2.674,7.108c-0.136,0.307-2.009,5.198-2.341,5.733c-1.34-3.975-3.143-8.331-4.684-12.764
		c-0.199-0.458-0.398-0.458-0.6-0.458c-0.337,0-1.07,0.076-2.207,0.076c-2.943,0-3.611-0.076-3.88-0.076
		c-0.135,0-0.135,0.076-0.135,0.152v0.765c0,0.075,0,0.153,0.135,0.153h0.804c1.137,0,1.403,0.764,1.403,1.987v4.052
		c0,0.458-0.2,6.649-0.401,8.56c-0.133,0.841-0.4,2.064-1.203,2.064h-1.004c-0.133,0-0.199,0.076-0.199,0.153v0.688
		c0,0.153,0.066,0.229,0.268,0.229c0.199,0,1.07-0.076,3.144-0.076c1.807,0,2.475,0.076,2.742,0.076
		c0.199,0,0.268-0.076,0.268-0.229v-0.688c0-0.077-0.067-0.153-0.203-0.153h-0.934c-0.803,0-1.205-1.529-1.271-2.446
		C376.877,321.064,376.877,317.472,376.877,317.165L376.877,317.165z M400.547,317.625L400.547,317.625
		c0,1.451-0.064,7.107-0.132,7.491c-0.067,0.611-0.604,0.764-1.069,0.764h-0.736c-0.133,0-0.199,0-0.199,0.153v0.688
		c0,0.153,0.066,0.229,0.199,0.229c0.269,0,1.336-0.076,3.945-0.076c2.34,0,3.344,0.076,3.61,0.076c0.134,0,0.201-0.076,0.201-0.153
		v-0.763c0-0.153-0.067-0.153-0.201-0.153h-1.004c-0.469,0-0.803-0.153-0.803-0.994c0-0.229-0.065-6.268-0.065-6.573v-1.987
		c0-0.382,0.065-6.191,0.065-6.42c0-0.458,0.334-0.688,0.938-0.688h0.733c0.135,0,0.201-0.078,0.201-0.153v-0.688
		c0-0.152-0.066-0.228-0.133-0.228c-0.402,0-1.14,0.076-3.68,0.076c-2.404,0-3.677-0.076-3.943-0.076
		c-0.135,0-0.201,0.076-0.201,0.152v0.765c0,0.075,0.066,0.153,0.201,0.153h1.203c0.467,0,0.735,0.23,0.803,0.917
		c0,0.305,0.064,5.044,0.064,5.656L400.547,317.625L400.547,317.625z"/>
	<path fill="#010000" d="M414.456,316.325c0-1.834,0.066-5.809,0.066-6.114c0-0.765,0.135-0.995,0.869-0.995h1.139
		c0.199,0,0.267-0.078,0.267-0.228v-0.613c0-0.152,0-0.228-0.197-0.228c-0.271,0-1.271,0.076-4.146,0.076
		c-2.274,0-3.145-0.076-3.411-0.076c-0.134,0-0.199,0.076-0.199,0.152v0.689c0,0.075,0.065,0.228,0.199,0.228h0.938
		c0.535,0,0.668,0.23,0.734,0.917c0,0.458,0.067,3.21,0.067,4.892v1.528c0,1.606-0.067,8.103-0.067,8.637
		c0,0.307-0.199,0.688-1.072,0.688h-0.799c-0.136,0-0.136,0-0.136,0.153v0.688c0,0.153,0,0.229,0.201,0.229
		c0.267,0,1.203-0.076,3.609-0.076c2.275,0,9.43,0,10.031,0.076c0.135-0.764,1.137-5.044,1.205-5.272
		c0.065-0.154,0.065-0.154-0.068-0.23l-0.467-0.229c-0.135-0.077-0.201,0-0.269,0.153c-0.401,0.994-2.073,4.128-3.412,4.281
		c-1.336,0.152-2.405,0.152-3.61,0.152h-1.404c-0.066-1.071-0.066-6.728-0.066-7.186L414.456,316.325L414.456,316.325z
		 M426.695,317.625L426.695,317.625c0,1.451-0.065,7.107-0.133,7.491c-0.135,0.611-0.602,0.764-1.137,0.764h-0.67
		c-0.136,0-0.199,0-0.199,0.153v0.688c0,0.153,0.063,0.229,0.199,0.229c0.268,0,1.336-0.076,3.879-0.076
		c2.34,0,3.344,0.076,3.678,0.076c0.133,0,0.203-0.076,0.203-0.153v-0.763c0-0.153-0.07-0.153-0.203-0.153h-1.004
		c-0.469,0-0.869-0.153-0.869-0.994c0-0.229-0.063-6.268-0.063-6.573v-1.987c0-0.382,0.063-6.191,0.063-6.42
		c0-0.458,0.4-0.688,1.006-0.688h0.732c0.135,0,0.201-0.078,0.201-0.153v-0.688c0-0.152-0.066-0.228-0.201-0.228
		c-0.334,0-1.138,0.076-3.676,0.076c-2.41,0-3.679-0.076-3.945-0.076c-0.068,0-0.201,0.076-0.201,0.152v0.765
		c0,0.075,0.133,0.153,0.201,0.153h1.203c0.535,0,0.803,0.23,0.803,0.917c0.066,0.305,0.133,5.044,0.133,5.656V317.625
		L426.695,317.625z M443.883,319.612L443.883,319.612c0.266,0.995,1.203,4.356,1.471,5.273c0.135,0.688-0.068,0.994-0.738,0.994
		h-0.731c-0.066,0-0.138,0.076-0.138,0.229v0.458c0,0.228,0.07,0.381,0.269,0.381c0.535,0,1.406-0.076,3.412-0.076
		c3.145,0,3.678,0.076,4.146,0.076c0.197,0,0.269-0.229,0.269-0.381v-0.458c0-0.153-0.07-0.229-0.201-0.229h-0.869
		c-0.334,0-1.004-0.382-1.404-1.223c-0.336-0.688-1.938-5.581-2.543-7.643c-0.467-1.683-2.338-7.567-2.809-9.25
		c-0.131-0.306-0.131-0.459-0.334-0.459c-0.064,0-0.199,0.153-0.269,0.23c-0.397,0.458-2.004,1.146-2.807,1.375
		c-0.201,0-0.201,0.153-0.201,0.228c0,0.078,0.066,0.23,0.135,0.308c0.199,0.305,0.066,0.611,0,0.917
		c-0.2,0.688-2.206,6.344-2.407,6.879c-0.869,2.292-2.609,6.878-2.943,7.414c-0.469,0.841-1.068,1.223-1.672,1.223h-0.668
		c-0.135,0-0.135,0.076-0.135,0.229v0.458c0,0.228,0,0.381,0.135,0.381c0.4,0,0.936-0.076,2.742-0.076
		c2.006,0,3.01,0.076,3.344,0.076c0.201,0,0.201-0.076,0.201-0.306v-0.61c0-0.077,0-0.153-0.269-0.153h-0.871
		c-0.733,0-0.936-0.688-0.936-1.223c0-0.841,1.203-4.434,1.404-5.044h5.418V319.612z M438.799,318.618L438.799,318.618
		c0.201-0.687,2.272-6.878,2.407-7.261c0.066-0.229,0.136-0.306,0.332-0.306c0.068,0,0.138,0.153,0.269,0.536
		c0.137,0.688,1.604,6.191,1.809,7.031H438.799L438.799,318.618z M454.581,317.395L454.581,317.395c0,2.522,0,4.969,0,7.645
		c0,0.611-0.469,0.84-1.004,0.84h-0.735c-0.133,0-0.133,0.076-0.133,0.153v0.61c0,0.23,0,0.306,0.2,0.306
		c0.269,0,0.802-0.076,3.41-0.076c2.607,0,3.277,0.076,3.277,0.076c0.332,0,0.399-0.076,0.399-0.229v-0.688
		c0-0.077-0.067-0.153-0.198-0.153h-1.004c-0.402,0-0.603-0.535-0.603-1.07c-0.068-0.306-0.135-3.287-0.135-4.814v-1.377h0.801
		c1.207,0,2.207,1.989,3.078,3.746c0.4,0.917,1.939,3.974,2.674,4.585c0.668-0.076,1.605-0.076,2.342-0.076
		c1.871,0,2.541,0.076,2.74,0.076c0.135,0,0.201-0.076,0.201-0.229v-0.688c0-0.077-0.066-0.153-0.201-0.153
		c-0.602,0-1.537-0.229-1.805-0.611c-0.535-0.612-1.873-2.599-2.006-2.829c-0.201-0.305-1.539-2.675-1.873-3.058
		c-0.47-0.611-0.867-1.146-1.604-1.375v-0.229c2.14-0.23,4.479-1.683,4.479-5.044c0-0.994-0.467-1.988-1.404-2.829
		c-1.002-0.994-2.408-1.757-4.346-1.757c-1.004,0-3.146,0.076-4.547,0.076c-2.677,0-3.479-0.076-3.679-0.076
		c-0.135,0-0.135,0.076-0.135,0.152v0.765c0,0.075,0,0.153,0.135,0.153h1.002c0.334,0,0.67,0.458,0.67,1.299
		c0,0.765,0,2.446,0,4.356v2.523H454.581z M458.193,310.058L458.193,310.058c0.064-0.306,0.133-0.611,0.269-0.764
		c0.198-0.155,0.534-0.23,0.936-0.23c0.734,0,1.873,0.306,2.74,1.147c0.535,0.61,0.936,1.757,0.936,2.98s-0.799,4.586-4.01,4.586
		c-0.268,0-0.535,0-1.004-0.078L458.193,310.058L458.193,310.058z"/>
	<path fill="#010000" d="M109.255,334.821h392.738c1.203,16.434,7.556,21.706,19.726,22.853l-0.064,68.943
		c-11.838,0.229-20.529,7.567-19.262,22.471H108.987c0-12.916-2.808-21.17-19.66-22.01l0.134-69.862
		C99.291,357.522,108.653,354.847,109.255,334.821L109.255,334.821z"/>
	<path fill="#FFF000" d="M115.81,343.305h379.429c2.609,12.995,9.428,19.109,19.326,21.402l-0.066,55.109
		c-9.094,1.909-16.049,8.559-18.854,20.789l-379.833,0.532c-1.405-11.768-9.965-20.178-19.126-21.477l0.2-55.108
		C105.978,362.185,113,357.446,115.81,343.305L115.81,343.305z"/>
	<path fill="#ED1A23" d="M122.094,350.949h366.791c3.344,9.937,9.362,16.28,18.188,19.107v43.796
		c-8.559,3.21-14.711,9.25-17.854,18.65h-367.86c-1.404-9.861-8.226-15.441-17.52-19.109l0.4-43.719
		C111.931,366.923,118.35,361.649,122.094,350.949L122.094,350.949z"/>
	<path fill="#FDFDFD" d="M128.247,391.917c0,4.892-0.135,19.415-0.334,20.79c-0.068,0.992-0.604,1.529-1.539,1.529h-2.541
		c-0.201,0-0.402,0.149-0.402,0.383v1.682c0,0.457,0.134,0.611,0.402,0.611c0.668,0,2.606-0.232,6.819-0.232
		c2.677,0,8.428,0.232,9.229,0.232c3.01,0,11.369-0.076,16.05-6.879c3.209-4.664,4.815-9.556,4.815-16.893
		c0-7.491-2.207-12.842-5.417-16.435c-4.615-5.044-9.897-5.807-16.518-5.807c-1.069,0-5.953,0.152-7.223,0.152
		c-4.881,0-7.021-0.152-7.623-0.152c-0.201,0-0.335,0.076-0.335,0.305v1.835c0,0.382,0.134,0.459,0.335,0.459h2.474
		c0.804,0,1.473,0.305,1.605,1.833c0.065,0.995,0.201,10.088,0.201,11.771L128.247,391.917L128.247,391.917z M135.603,388.784
		L135.603,388.784c0-0.994,0-9.479,0-12.153c0.067-1.299,0.268-2.369,1.004-2.828c0.602-0.383,1.336-0.46,2.742-0.46
		c2.809,0,7.088,2.063,9.628,5.81c2.274,3.362,3.946,8.791,3.946,14.063c0,6.039-1.472,11.313-3.411,14.675
		c-2.541,4.513-6.285,6.347-9.094,6.347c-1.672,0-3.343-0.384-3.944-1.529c-0.603-1.223-0.803-2.295-0.803-3.592
		c-0.067-3.976-0.067-14.906-0.067-15.745L135.603,388.784L135.603,388.784z M184.753,417.674L184.753,417.674
		c7.689,0,11.837-3.897,14.979-9.094c2.54-4.51,3.678-9.402,3.678-14.141c0-8.866-2.942-15.363-6.688-19.26
		c-4.079-4.204-7.825-5.046-11.837-5.046c-4.414,0-9.897,1.224-14.176,8.178c-3.745,5.963-4.48,12.077-4.48,16.052
		c0,9.402,3.678,16.357,7.155,19.107C177.196,416.607,181.41,417.674,184.753,417.674L184.753,417.674z M185.154,414.619
		L185.154,414.619c-4.012,0-11.167-5.887-11.167-22.32c0-5.35,1.473-12.076,4.349-15.668c2.94-3.822,5.349-3.516,6.352-3.516
		c4.079,0,11.101,7.719,11.101,21.859C195.787,400.248,194.183,414.619,185.154,414.619L185.154,414.619z M237.916,403.766
		L237.916,403.766h-0.2c-0.536-0.842-7.624-12.614-8.359-13.682c-1.403-2.371-11.032-17.885-11.235-18.269
		c-0.4-0.611-0.802-0.84-1.403-0.84s-2.072,0.076-3.745,0.076c-2.54,0-4.079-0.076-5.015-0.076c-0.938,0-1.338-0.076-1.605-0.076
		c-0.2,0-0.268,0.076-0.268,0.381v1.759c0,0.153,0.066,0.382,0.268,0.382l1.271,0.078c2.406,0.074,4.146,3.668,4.146,7.489v5.81
		c0,9.553-0.4,19.869-0.4,21.094c-0.267,4.283-1.068,6.347-2.14,6.347h-1.671c-0.269,0-0.336,0.149-0.336,0.383v1.682
		c0,0.457,0.067,0.611,0.269,0.611c0.469,0,3.878-0.232,5.349-0.232c2.273,0,5.217,0.232,5.685,0.232
		c0.334,0,0.401-0.154,0.401-0.537v-1.527c0-0.461-0.067-0.61-0.401-0.61h-1.204c-2.072,0-2.942-1.912-3.009-5.656
		c-0.066-2.445-0.469-10.395-0.469-15.746V379.84h0.335c1.137,2.141,7.89,13.223,8.693,14.522c0.936,1.375,4.813,7.565,8.291,13.071
		c2.941,4.509,5.35,7.949,6.151,9.019c0.536,0.688,1.139,0.994,1.873,0.994c0.668,0,0.735-1.146,0.735-2.142v-11.006
		c0-8.482,0.803-23.082,1.137-27.362c0.134-2.293,0.602-3.439,1.471-3.439h1.336c0.202,0,0.269-0.231,0.269-0.537v-1.604
		c0-0.382-0.065-0.458-0.535-0.458c-0.533,0-1.671,0.152-4.613,0.152c-3.61,0-5.147-0.152-5.685-0.152
		c-0.401,0-0.401,0.076-0.401,0.458v1.604c0,0.382,0,0.537,0.269,0.537h1.539c1.136,0,2.271,0.916,2.606,2.521
		c0.135,0.993,0.402,7.26,0.402,9.783c0.134,3.211,0.2,6.421,0.2,12.155L237.916,403.766L237.916,403.766z M275.699,417.674
		L275.699,417.674c6.887,0,11.567-5.271,14.443-10.621c0.201-0.387,0.133-0.69,0-0.842l-0.869-0.918c-0.2-0.303-0.468,0-0.735,0.537
		c-1.807,3.514-5.886,6.877-11.437,6.877c-1.672,0-4.413-0.533-7.624-4.816c-3.41-4.891-4.281-12.763-4.281-16.813
		c-0.063-9.554,2.945-18.116,10.032-18.116c3.679,0,6.286,2.141,8.36,4.816c2.073,2.752,3.344,6.039,3.878,8.637
		c0.2,0.536,0.334,0.841,0.602,0.689l1.071-0.384c0.268-0.075,0.268-0.381,0.268-0.839c-0.268-1.911-1.137-12.841-1.137-14.064
		c0-0.916-0.067-1.069-0.803-1.069s-0.869,0-0.936,0.382l-0.403,1.605c-0.066,0.459-0.332,0.535-1.002,0.076
		c-1.739-1.222-5.352-2.675-9.764-2.675c-6.085,0-10.098,2.981-12.839,6.956c-3.411,4.816-5.016,10.776-5.016,17.427
		c0,5.58,1.672,12.917,5.283,17.197C265.869,415.305,269.28,417.674,275.699,417.674L275.699,417.674z M297.366,394.057
		L297.366,394.057c0,1.681-0.068,14.216-0.134,17.199c0,1.451-0.134,2.98-1.404,2.98h-2.205c-0.471,0-0.471,0.149-0.471,0.61v1.297
		c0,0.535,0,0.769,0.471,0.769c1.002,0,2.405-0.232,7.556-0.232c4.078,0,5.817,0.232,6.686,0.232c0.4,0,0.472-0.232,0.472-0.611
		v-1.528c0-0.386-0.07-0.535-0.472-0.535h-1.338c-1.066,0-1.604-0.611-1.604-2.22c-0.2-4.354-0.333-14.291-0.333-15.896v-0.993
		c0-0.535,0.133-0.765,0.667-0.765h14.512c0.6,0,1.07,0.076,1.07,0.765v0.841c0,2.064-0.066,12.381-0.201,15.437
		c0,1.606-0.199,2.83-1.336,2.83h-2.142c-0.469,0-0.534,0.149-0.534,0.61v1.377c0,0.306,0.065,0.688,0.602,0.688
		c1.135,0,2.676-0.232,7.688-0.232c4.349,0,6.021,0.232,6.755,0.232c0.534,0,0.534-0.383,0.534-0.688v-1.377
		c0-0.461,0-0.61-0.399-0.61h-1.672c-1.472,0-1.939-0.916-1.939-3.211c-0.063-3.593-0.135-15.822-0.135-17.885V391
		c0-2.37,0.07-13.299,0.07-14.216c0-2.14,0.133-3.286,1.602-3.286h1.406c0.602,0,0.668-0.231,0.668-0.689v-1.222
		c0-0.536-0.066-0.688-0.668-0.688c-0.604,0-2.676,0.152-6.689,0.152c-4.146,0-6.217-0.152-7.09-0.152
		c-0.397,0-0.467,0.152-0.467,0.534v1.452c0,0.458,0.068,0.613,0.537,0.613h1.938c0.867,0,1.07,1.222,1.136,3.286
		c0,0.687,0.336,9.629,0.336,13.299v0.61c0,0.764-0.201,0.841-0.937,0.841h-14.579c-0.602,0-0.734-0.152-0.734-0.458v-0.994
		c0-3.592,0.2-12.154,0.267-12.995c0.134-2.445,0.4-3.591,2.141-3.591h1.136c0.534,0,0.604-0.155,0.604-0.537v-1.374
		c0-0.536-0.067-0.688-0.604-0.688c-0.802,0-2.54,0.152-7.287,0.152c-4.882,0-6.422-0.152-7.291-0.152
		c-0.468,0-0.534,0.381-0.534,0.763v1.223c0,0.382,0.066,0.613,0.604,0.613h2.005c1.27,0,1.671,0.916,1.671,4.203
		c0,0.917,0.068,9.63,0.068,13.604L297.366,394.057L297.366,394.057z M353.938,399.027L353.938,399.027
		c0.604,2.289,2.541,10.547,2.943,12.914c0.27,1.684-0.136,2.295-1.47,2.295h-1.338c-0.268,0-0.268,0.229-0.268,0.61v1.224
		c0,0.381,0,0.842,0.533,0.842c0.938,0,2.674-0.232,6.688-0.232c6.221,0,7.221,0.232,8.158,0.232c0.402,0,0.467-0.461,0.467-0.842
		v-1.224c0-0.381-0.063-0.61-0.334-0.61h-1.67c-0.738,0-2.006-0.767-2.809-2.904c-0.736-1.758-3.88-13.684-5.017-18.727
		c-0.871-4.128-4.682-18.573-5.617-22.625c-0.133-0.687-0.27-1.069-0.537-1.069c-0.266,0-0.399,0.229-0.6,0.534
		c-0.736,1.147-3.945,2.753-5.484,3.21c-0.399,0.152-0.469,0.382-0.469,0.611c0,0.231,0.201,0.536,0.336,0.841
		c0.334,0.688,0.066,1.529-0.069,2.218c-0.398,1.68-4.345,15.515-4.746,16.814c-1.605,5.732-5.082,16.893-5.752,18.266
		c-0.937,1.914-2.138,2.83-3.275,2.83h-1.271c-0.332,0-0.332,0.149-0.332,0.61v1.224c0,0.381,0,0.842,0.332,0.842
		c0.67,0,1.737-0.232,5.284-0.232c4.013,0,6.019,0.232,6.619,0.232c0.402,0,0.469-0.232,0.469-0.769v-1.373
		c0-0.305-0.065-0.534-0.534-0.534h-1.738c-1.473,0-1.873-1.529-1.873-2.98c0-2.063,2.34-10.854,2.742-12.229L353.938,399.027
		L353.938,399.027z M343.975,396.428L343.975,396.428c0.334-1.606,4.549-16.817,4.813-17.657c0.136-0.536,0.271-0.841,0.537-0.841
		c0.265,0,0.334,0.458,0.533,1.453c0.336,1.605,3.211,15.134,3.68,17.046L343.975,396.428L343.975,396.428z M401.084,403.766
		L401.084,403.766h-0.201c-0.535-0.842-7.623-12.614-8.291-13.682c-1.474-2.371-11.033-17.885-11.301-18.269
		c-0.402-0.611-0.804-0.84-1.406-0.84c-0.604,0-2.072,0.076-3.678,0.076c-2.541,0-4.08-0.076-5.08-0.076
		c-0.939,0-1.341-0.076-1.539-0.076c-0.271,0-0.271,0.076-0.271,0.381v1.759c0,0.153,0,0.382,0.271,0.382l1.2,0.078
		c2.408,0.074,4.216,3.668,4.216,7.489v5.81c0,9.553-0.402,19.869-0.47,21.094c-0.268,4.283-1.004,6.347-2.069,6.347h-1.74
		c-0.203,0-0.268,0.149-0.268,0.383v1.682c0,0.457,0.063,0.611,0.268,0.611c0.467,0,3.811-0.232,5.35-0.232
		c2.273,0,5.148,0.232,5.683,0.232c0.336,0,0.336-0.154,0.336-0.537v-1.527c0-0.461,0-0.61-0.336-0.61h-1.269
		c-2.008,0-2.877-1.912-3.01-5.656c0-2.445-0.469-10.395-0.469-15.746V379.84h0.397c1.142,2.141,7.826,13.223,8.632,14.522
		c0.934,1.375,4.813,7.565,8.356,13.071c2.877,4.509,5.283,7.949,6.086,9.019c0.533,0.688,1.203,0.994,1.938,0.994
		c0.67,0,0.735-1.146,0.735-2.142v-11.006c0-8.482,0.736-23.082,1.07-27.362c0.201-2.293,0.668-3.439,1.471-3.439h1.404
		c0.135,0,0.201-0.231,0.201-0.537v-1.604c0-0.382-0.066-0.458-0.469-0.458c-0.535,0-1.738,0.152-4.613,0.152
		c-3.611,0-5.148-0.152-5.685-0.152c-0.401,0-0.471,0.076-0.471,0.458v1.604c0,0.382,0.068,0.537,0.336,0.537h1.537
		c1.137,0,2.273,0.916,2.543,2.521c0.199,0.993,0.4,7.26,0.467,9.783c0.066,3.211,0.136,6.421,0.136,12.155L401.084,403.766
		L401.084,403.766z M429.572,417.674L429.572,417.674c7.621,0,11.771-3.897,14.912-9.094c2.539-4.51,3.678-9.402,3.678-14.141
		c0-8.866-2.94-15.363-6.688-19.26c-4.08-4.204-7.822-5.046-11.836-5.046c-4.349,0-9.898,1.224-14.176,8.178
		c-3.746,5.963-4.482,12.077-4.482,16.052c0,9.402,3.678,16.357,7.154,19.107C421.947,416.607,426.159,417.674,429.572,417.674
		L429.572,417.674z M429.904,414.619L429.904,414.619c-4.012,0-11.166-5.887-11.166-22.32c0-5.35,1.472-12.076,4.347-15.668
		c2.942-3.822,5.418-3.516,6.352-3.516c4.08,0,11.104,7.719,11.104,21.859C440.538,400.248,438.934,414.619,429.904,414.619
		L429.904,414.619z M455.25,370.133L455.25,370.133c-1.673,0-2.875,1.682-2.875,3.67c0,3.439,2.006,4.049,2.475,4.355
		c0.334,0.229,0.734,0.994,0.734,1.834c0,3.211-1.939,6.575-2.607,7.186c-0.268,0.229-0.469,0.612-0.469,0.993
		c0,0.306,0.201,0.459,0.469,0.459c0.334,0,0.803-0.229,1.338-0.611c0.734-0.536,5.484-4.661,5.484-11.388
		C459.799,372.35,457.523,370.133,455.25,370.133L455.25,370.133z M464.211,402.313L464.211,402.313c-0.201,0-0.334,0-0.402,0.457
		L463.072,415c-0.063,0.688,0.135,1.07,0.67,1.07c0.334,0,0.535-0.076,0.869-0.843c0.271-0.608,0.469-1.067,0.736-1.067
		c0.267,0,0.535,0.227,1.137,0.688c2.072,1.832,4.348,2.826,8.691,2.826c6.422,0,10.7-6.418,10.7-14.295
		c0-4.506-0.803-7.335-2.672-9.551c-2.01-2.37-3.948-3.974-6.221-4.892c-2.408-0.917-5.217-2.445-6.42-4.204
		c-1.271-1.605-1.271-3.515-1.271-5.962c0-1.682,1.472-5.81,5.148-5.81c2.141,0,3.611,0.842,4.814,2.676
		c1.672,2.292,2.541,4.813,3.075,6.726c0.138,0.458,0.336,0.534,0.604,0.458l1.065-0.458c0.138-0.076,0.269-0.152,0.269-0.382
		l-0.801-11.006c-0.066-0.382-0.133-1.147-0.468-1.147c-0.334,0-0.532,0.153-0.735,0.382l-0.668,0.841
		c-0.267,0.458-0.604,0.61-1.07,0.306c-1.068-0.458-2.943-1.224-6.488-1.224c-2.938,0-4.813,0.842-7.02,3.059
		c-2.875,2.904-3.609,5.579-3.609,9.477c0,3.745,0.734,7.186,2.404,9.173c2.475,2.829,5.619,4.892,7.023,5.579
		c6.354,3.135,7.153,4.74,7.153,10.014c0,5.119-3.746,7.187-6.084,7.187c-2.344,0-4.748-1.453-6.153-4.359
		c-1.138-2.521-1.871-5.27-1.939-7.336c0-0.385-0.133-0.461-0.334-0.461L464.211,402.313L464.211,402.313z"/>
	<path fill="#010000" d="M65.789,412.248c9.83,0,17.788-9.094,17.788-20.331c0-11.16-7.958-20.331-17.788-20.331
		c-9.764,0-17.789,9.171-17.789,20.331C48,403.154,56.026,412.248,65.789,412.248L65.789,412.248z"/>
	<path fill="#FFF000" d="M65.789,407.738c7.623,0,13.842-7.107,13.842-15.821s-6.219-15.745-13.842-15.745
		c-7.624,0-13.775,7.031-13.775,15.745S58.165,407.738,65.789,407.738L65.789,407.738z"/>
	<path fill="#ED1A23" d="M65.789,401.928c4.813,0,8.759-4.508,8.759-10.01c0-5.504-3.945-10.013-8.759-10.013
		c-4.814,0-8.761,4.509-8.761,10.013C57.028,397.42,60.974,401.928,65.789,401.928L65.789,401.928z"/>
	<path fill="#010000" d="M544.857,412.248c9.766,0,17.723-9.094,17.723-20.331c0-11.16-7.956-20.331-17.723-20.331
		c-9.828,0-17.787,9.171-17.787,20.331C527.07,403.154,535.029,412.248,544.857,412.248L544.857,412.248z"/>
	<path fill="#FFF000" d="M544.857,407.738c7.557,0,13.775-7.107,13.775-15.821s-6.22-15.745-13.775-15.745
		c-7.623,0-13.842,7.031-13.842,15.745S537.234,407.738,544.857,407.738L544.857,407.738z"/>
	<path fill="#ED1A23" d="M544.857,401.928c4.814,0,8.76-4.508,8.76-10.01c0-5.504-3.944-10.013-8.76-10.013
		c-4.881,0-8.76,4.509-8.76,10.013C536.098,397.42,539.977,401.928,544.857,401.928L544.857,401.928z"/>
	<path d="M167.566,461.93l-4.612,19.949c-0.135,0.383-0.334,1.299-0.334,1.682c0,0.074,0,0.154,0,0.154
		c0.066,0,0.066,0.076,0.066,0.076c0.134,0,0.269-0.156,0.334-0.23c0.535-0.534,1.003-1.299,1.404-1.987l0.201-0.457l0.869,1.146
		l-0.135,0.228c-0.602,1.146-1.471,2.371-2.406,3.211c-0.469,0.383-1.07,0.612-1.673,0.612c-0.4,0-0.803-0.151-1.069-0.532
		c-0.268-0.31-0.401-0.767-0.401-1.226c0-0.688,0.269-1.836,0.401-2.522l3.61-15.285c0.067-0.383,0.401-1.605,0.401-2.063
		c0-0.153-0.065-0.231-0.133-0.307c-0.134-0.154-0.401-0.154-0.603-0.154c-0.267,0-0.533,0-0.802,0.076l-0.401,0.078V463
		L167.566,461.93L167.566,461.93z M174.121,483.025L174.121,483.025c-0.668,0.918-1.472,1.834-2.273,2.444
		c-0.668,0.535-1.472,0.843-2.273,0.843c-0.805,0-1.404-0.384-1.874-1.07c-0.602-0.84-0.802-1.912-0.802-2.98
		c0-1.987,0.534-3.897,1.271-5.655c0.802-1.837,1.871-3.441,3.342-4.738c0.869-0.767,1.873-1.453,3.01-1.453
		c0.602,0,1.138,0.229,1.605,0.611c0.2,0.229,0.399,0.536,0.534,0.842l0.268-0.996l2.809-0.533l-2.674,11.619l-0.334,1.453
		c0,0.149,0,0.225,0,0.305c0,0.076,0,0.152,0.066,0.229c0.067,0,0.201-0.152,0.201-0.152c0.468-0.461,1.003-1.303,1.338-1.912
		l0.2-0.307l0.937,0.842l-0.134,0.305c-0.535,0.916-1.136,1.912-1.939,2.676c-0.603,0.535-1.271,0.919-2.006,0.919
		c-0.401,0-0.803-0.076-1.071-0.457c-0.334-0.308-0.399-0.767-0.399-1.226C173.921,484.094,173.987,483.561,174.121,483.025
		L174.121,483.025z M193.313,470.871L193.313,470.871h2.073l-0.402,1.76h-2.072l-2.207,9.326c-0.135,0.457-0.334,1.373-0.334,1.91
		c0,0,0,0.154,0,0.227c0.199,0,0.535-0.379,0.669-0.533c0.4-0.383,1.002-1.45,1.337-1.909l0.268-0.384l0.869,0.916l-0.134,0.306
		c-0.604,1.071-1.471,2.371-2.408,3.211c-0.468,0.383-1.069,0.612-1.671,0.612c-0.469,0-0.87-0.151-1.205-0.532
		c-0.333-0.386-0.467-0.92-0.467-1.453c0-0.842,0.267-1.912,0.467-2.754l2.075-8.941h-1.94l0.268-1.301l0.134-0.074
		c0.87-0.307,1.672-0.766,2.341-1.377c0.803-0.842,1.539-2.215,2.073-3.287l0.066-0.229h1.204L193.313,470.871L193.313,470.871z
		 M199.465,475.994L199.465,475.994c0.87-1.605,1.873-3.209,3.009-4.355c0.468-0.537,1.204-1.225,1.939-1.225
		c0.334,0,0.669,0.152,0.937,0.457c0.269,0.305,0.334,0.768,0.334,1.225c0,0.765-0.201,1.529-0.468,2.217
		c-0.267,0.535-0.669,0.916-1.205,0.916c-0.333,0-0.601-0.151-0.802-0.381c-0.2-0.229-0.334-0.61-0.334-0.994
		c0,0,0-0.151-0.068-0.151c-0.064,0-0.134,0-0.199,0.076c-0.336,0.153-0.804,0.916-1.003,1.147c-0.87,1.297-1.604,2.748-2.341,4.125
		c-0.401,0.765-0.668,1.529-0.937,2.371c-0.2,0.688-0.469,1.453-0.603,2.213l-0.468,2.295h-2.742l2.542-10.545
		c0.2-0.69,0.401-1.684,0.401-2.449c0-0.075,0-0.149-0.067-0.229c-0.134-0.076-0.267-0.152-0.467-0.152
		c-0.269,0-0.669,0.076-0.937,0.152l-0.335,0.078l-0.268-1.379l5.417-1.068L199.465,475.994L199.465,475.994z M212.438,483.025
		L212.438,483.025c-0.669,0.918-1.47,1.834-2.272,2.444c-0.668,0.535-1.405,0.843-2.206,0.843c-0.803,0-1.473-0.384-1.939-1.07
		c-0.603-0.84-0.802-1.912-0.802-2.98c0-1.987,0.535-3.897,1.337-5.655c0.802-1.837,1.873-3.441,3.277-4.738
		c0.87-0.767,1.938-1.453,3.076-1.453c0.601,0,1.137,0.229,1.538,0.611c0.268,0.229,0.469,0.536,0.602,0.842l0.201-0.996
		l2.874-0.533l-2.74,11.619l-0.268,1.453c0,0.149-0.067,0.225-0.067,0.305c0,0.076,0.067,0.152,0.067,0.229
		c0.066,0,0.2-0.152,0.268-0.152c0.468-0.461,0.936-1.303,1.271-1.912l0.199-0.307l1.003,0.842l-0.199,0.305
		c-0.469,0.996-1.139,1.912-1.94,2.676c-0.535,0.462-1.271,0.919-2.006,0.919c-0.4,0-0.802-0.076-1.069-0.457
		c-0.268-0.308-0.4-0.767-0.4-1.226C212.238,484.094,212.372,483.561,212.438,483.025L212.438,483.025z M226.08,482.338
		L226.08,482.338c-0.668,1.146-1.472,2.217-2.34,2.98c-0.67,0.537-1.405,0.994-2.274,0.994c-0.802,0-1.472-0.457-2.006-1.224
		c-0.603-0.918-0.802-2.063-0.802-3.211c0-1.91,0.534-3.744,1.271-5.352c0.801-1.834,1.939-3.438,3.41-4.66
		c0.937-0.767,2.006-1.453,3.211-1.453c0.468,0,0.936,0.152,1.404,0.457c0.267,0.154,0.467,0.385,0.67,0.69l1.136-4.971
		c0.065-0.305,0.134-0.61,0.199-0.992c0.135-0.307,0.202-0.61,0.202-0.916c0-0.153-0.067-0.231-0.135-0.307
		c-0.134-0.154-0.268-0.154-0.468-0.154c-0.334,0-0.669,0-0.936,0.076l-0.403,0.078V463l5.35-1.07l-4.681,19.797
		c-0.134,0.457-0.401,1.451-0.335,2.064c0,0,0.134-0.156,0.201-0.156c0.468-0.379,1.067-1.373,1.404-1.908l0.2-0.305l1.003,0.762
		l-0.201,0.306c-0.535,0.996-1.205,1.987-1.938,2.754c-0.601,0.537-1.271,1.069-2.073,1.069c-0.4,0-0.734-0.151-1.002-0.456
		c-0.268-0.386-0.336-0.919-0.336-1.38C225.812,483.791,225.946,483.025,226.08,482.338L226.08,482.338z M238.049,463.992
		L238.049,463.992c0.469,0,0.87,0.154,1.205,0.613c0.268,0.383,0.468,0.84,0.468,1.375c0,0.534-0.201,0.991-0.468,1.379
		c-0.334,0.455-0.735,0.608-1.205,0.608c-0.467,0-0.869-0.153-1.203-0.608c-0.334-0.388-0.467-0.845-0.467-1.379
		c0-0.535,0.133-0.992,0.467-1.375C237.181,464.146,237.583,463.992,238.049,463.992L238.049,463.992z M238.652,470.338
		L238.652,470.338l-2.741,12c-0.066,0.305-0.268,0.992-0.268,1.297c0,0.08,0.067,0.156,0.134,0.232c0.067,0,0.201-0.152,0.201-0.232
		c0.603-0.533,1.069-1.221,1.473-1.983l0.198-0.308l1.004,0.84l-0.134,0.306c-0.603,1.071-1.338,2.065-2.207,2.905
		c-0.535,0.535-1.203,0.918-1.938,0.918c-0.4,0-0.803-0.151-1.138-0.456c-0.267-0.386-0.4-0.767-0.4-1.302
		c0-0.61,0.201-1.453,0.334-2.065l1.738-7.334c0.067-0.537,0.4-1.607,0.4-2.142c0-0.153-0.065-0.229-0.134-0.307
		c-0.066-0.076-0.2-0.152-0.333-0.152c-0.335,0-0.804,0.152-1.138,0.23l-0.401,0.074v-1.453L238.652,470.338L238.652,470.338z
		 M250.222,482.262L250.222,482.262c-0.802,1.148-1.74,2.293-2.876,3.058c-0.936,0.688-2.006,0.993-3.143,0.993
		c-1.205,0-2.342-0.383-3.144-1.375c-0.869-1.069-1.137-2.368-1.137-3.747c0-1.834,0.402-3.517,1.137-5.119
		c0.802-1.607,1.805-2.98,3.144-4.054c1.202-0.916,2.54-1.604,3.943-1.604c0.87,0,1.739,0.229,2.408,0.842
		c0.534,0.611,0.802,1.299,0.802,2.142c0,0.686-0.201,1.372-0.603,1.907c-0.267,0.461-0.667,0.767-1.136,0.767
		c-0.333,0-0.668-0.152-0.937-0.461c-0.267-0.306-0.333-0.685-0.333-1.066c0-0.307,0-0.537,0.133-0.766
		c0.067-0.23,0.269-0.537,0.47-0.688c0.065-0.154,0.267-0.305,0.267-0.459c0.068-0.076,0.068-0.076,0.068-0.152
		c0-0.153-0.068-0.229-0.135-0.307c-0.2-0.154-0.603-0.229-0.871-0.229c-0.867,0-1.672,0.459-2.34,1.069
		c-0.936,0.765-1.604,1.834-2.073,3.058c-0.667,1.528-1.069,3.131-1.069,4.813c0,0.842,0.135,1.758,0.668,2.371
		c0.469,0.611,1.138,0.838,1.874,0.838c0.668,0,1.27-0.227,1.804-0.533c0.803-0.534,1.605-1.45,2.143-2.217l0.267-0.305l0.869,0.918
		L250.222,482.262L250.222,482.262z M257.577,463.992L257.577,463.992c0.468,0,0.868,0.154,1.203,0.613
		c0.269,0.383,0.469,0.84,0.469,1.375c0,0.534-0.2,0.991-0.469,1.379c-0.335,0.455-0.735,0.608-1.203,0.608
		c-0.469,0-0.869-0.153-1.203-0.608c-0.27-0.388-0.469-0.845-0.469-1.379c0-0.535,0.199-0.992,0.469-1.375
		C256.708,464.146,257.108,463.992,257.577,463.992L257.577,463.992z M258.178,470.338L258.178,470.338l-2.742,12
		c-0.066,0.305-0.201,0.992-0.201,1.297c0,0.08,0,0.156,0.066,0.232c0.067,0,0.203-0.152,0.268-0.232
		c0.535-0.533,1.003-1.221,1.405-1.983l0.201-0.308l1.002,0.84l-0.134,0.306c-0.603,1.071-1.337,2.065-2.207,2.905
		c-0.535,0.535-1.202,0.918-1.938,0.918c-0.401,0-0.803-0.151-1.07-0.456c-0.334-0.386-0.469-0.767-0.469-1.302
		c0-0.61,0.201-1.453,0.336-2.065l1.738-7.334c0.134-0.537,0.401-1.607,0.401-2.142c0-0.153-0.065-0.229-0.134-0.307
		c-0.065-0.076-0.201-0.152-0.334-0.152c-0.334,0-0.804,0.152-1.139,0.23l-0.4,0.074v-1.453L258.178,470.338L258.178,470.338z
		 M271.888,475.918L271.888,475.918c0,1.756-0.402,3.438-1.071,5.043c-0.733,1.607-1.737,2.906-3.074,3.898
		c-1.139,0.92-2.409,1.453-3.813,1.453c-1.27,0-2.341-0.457-3.209-1.529c-0.871-1.068-1.204-2.445-1.204-3.898
		c0-1.834,0.401-3.44,1.137-5.043c0.736-1.604,1.739-2.906,3.077-3.975c1.137-0.842,2.474-1.453,3.812-1.453
		c1.27,0,2.273,0.535,3.143,1.604C271.551,473.09,271.888,474.463,271.888,475.918L271.888,475.918z M271.687,462.313
		L271.687,462.313l-4.347,6.419h-1.071l1.538-6.419H271.687L271.687,462.313z M277.705,475.918L277.705,475.918
		c0.802-1.455,1.739-2.982,2.607-3.975c0.802-0.769,1.739-1.529,2.808-1.529c0.535,0,0.937,0.229,1.338,0.688
		c0.334,0.461,0.468,1.07,0.468,1.685c0,0.84-0.201,1.832-0.335,2.674l-1.67,6.879c-0.068,0.305-0.269,1.072-0.269,1.377
		c0,0,0.066,0.076,0,0.152c0.066,0,0.136-0.152,0.2-0.152c0.534-0.537,1.07-1.301,1.473-1.988l0.199-0.305l0.938,0.688l-0.201,0.305
		c-0.6,1.146-1.404,2.445-2.407,3.209c-0.399,0.383-1.003,0.689-1.538,0.689c-0.4,0-0.804-0.152-1.068-0.457
		c-0.269-0.308-0.334-0.767-0.334-1.226c0-0.84,0.268-1.988,0.466-2.828l1.54-6.498c0.134-0.61,0.268-1.299,0.268-1.834
		c0-0.073-0.067-0.229-0.067-0.229c-0.065-0.076-0.135-0.15-0.2-0.15c-0.27,0-0.536,0.23-0.736,0.381
		c-0.734,0.535-1.405,1.455-1.938,2.295c-0.803,1.3-1.538,2.826-2.207,4.279c-0.401,0.916-0.736,1.912-1.003,2.904l-0.734,2.979
		h-2.676l2.542-10.625c0.135-0.534,0.401-1.68,0.401-2.141c0-0.15,0-0.229-0.134-0.379c-0.065-0.078-0.201-0.154-0.334-0.154
		s-0.334,0.076-0.468,0.076l-0.871,0.152l-0.2-1.297l5.417-1.226L277.705,475.918L277.705,475.918z M300.509,482.338
		L300.509,482.338c-0.736,1.146-1.538,2.217-2.34,2.98c-0.669,0.537-1.473,0.994-2.275,0.994c-0.869,0-1.539-0.457-2.073-1.224
		c-0.602-0.918-0.802-2.063-0.802-3.211c0-1.91,0.534-3.744,1.336-5.352c0.806-1.834,1.939-3.438,3.413-4.66
		c0.869-0.767,2.005-1.453,3.144-1.453c0.532,0,1.002,0.152,1.402,0.457c0.269,0.154,0.537,0.385,0.736,0.69l1.071-4.971
		c0.134-0.305,0.2-0.61,0.268-0.992c0.066-0.307,0.133-0.61,0.133-0.916c0-0.153,0-0.231-0.065-0.307
		c-0.133-0.154-0.334-0.154-0.536-0.154c-0.269,0-0.603,0-0.936,0.076l-0.335,0.078V463l5.284-1.07l-4.682,19.797
		c-0.067,0.457-0.335,1.451-0.335,2.064c0.067,0,0.202-0.156,0.202-0.156c0.468-0.379,1.067-1.373,1.471-1.908l0.2-0.305
		l1.001,0.762l-0.198,0.306c-0.602,0.996-1.271,1.987-2.006,2.754c-0.536,0.537-1.272,1.069-2.006,1.069
		c-0.401,0-0.735-0.151-1.004-0.456c-0.333-0.386-0.401-0.919-0.401-1.38C300.174,483.791,300.307,483.025,300.509,482.338
		L300.509,482.338z M309.868,479.814L309.868,479.814c0,0.305,0,0.612,0,0.995c0,0.841,0.201,1.527,0.736,2.216
		c0.471,0.534,1.072,0.842,1.738,0.842c0.602,0,1.203-0.152,1.739-0.383c0.804-0.535,1.806-1.453,2.476-2.142l0.332-0.229
		l0.604,1.067l-0.2,0.23c-1.537,1.912-3.746,3.897-6.152,3.897c-1.271,0-2.406-0.456-3.209-1.604
		c-0.668-1.072-1.004-2.219-1.004-3.518c0-1.835,0.467-3.591,1.203-5.195c0.805-1.605,1.807-3.06,3.211-4.051
		c1.137-0.918,2.475-1.529,3.944-1.529c0.804,0,1.673,0.152,2.273,0.842c0.535,0.533,0.801,1.146,0.801,1.908
		c0,1.072-0.397,2.063-0.934,2.83c-0.938,1.299-2.207,2.141-3.545,2.752C312.678,479.281,311.206,479.588,309.868,479.814
		L309.868,479.814z M326.922,461.93L326.922,461.93l-4.683,19.949c-0.065,0.383-0.332,1.299-0.332,1.682
		c0,0.074,0.064,0.154,0.064,0.154s0,0.076,0.067,0.076c0.066,0,0.199-0.156,0.334-0.23c0.537-0.534,1.005-1.299,1.341-1.987
		l0.264-0.457l0.873,1.146l-0.137,0.228c-0.666,1.146-1.472,2.371-2.406,3.211c-0.535,0.383-1.07,0.612-1.672,0.612
		c-0.467,0-0.806-0.151-1.072-0.532c-0.334-0.31-0.467-0.767-0.467-1.226c0-0.688,0.27-1.836,0.467-2.522l3.545-15.285
		c0.135-0.383,0.404-1.605,0.469-2.063c0-0.153-0.063-0.231-0.198-0.307c-0.136-0.154-0.334-0.154-0.537-0.154
		c-0.269,0-0.603,0-0.869,0.076l-0.398,0.078V463L326.922,461.93L326.922,461.93z M338.559,472.324L338.559,472.324
		c0.402-0.457,0.869-0.918,1.406-1.224c0.6-0.457,1.334-0.688,2.137-0.688c1.004,0,1.941,0.457,2.609,1.375
		c0.733,0.918,1.002,2.217,1.002,3.438c0,1.91-0.468,3.746-1.271,5.429c-0.735,1.604-1.807,3.135-3.145,4.203
		c-1.138,0.84-2.404,1.452-3.81,1.452c-1.604,0-3.078-0.764-4.28-1.909l-0.201-0.154l4.08-17.275
		c0.135-0.457,0.467-1.758,0.467-2.213c0-0.153-0.064-0.309-0.135-0.383c-0.132-0.154-0.468-0.154-0.668-0.154
		c-0.267,0-0.533,0-0.804,0.076l-0.399,0.078V463l5.416-1.07L338.559,472.324L338.559,472.324z M354.406,480.734L354.406,480.734
		c-0.735,1.375-1.604,2.75-2.473,3.741c-0.805,0.918-1.873,1.837-3.076,1.837c-0.471,0-0.938-0.152-1.271-0.613
		c-0.334-0.457-0.47-0.992-0.47-1.605c0-1.145,0.267-2.672,0.535-3.819l1.205-5.046c0.066-0.534,0.398-1.604,0.398-2.139
		c0-0.076-0.064-0.076,0-0.076c-0.132,0-0.267,0.076-0.398,0.15c-0.334,0.307-0.938,1.299-1.205,1.762l-0.199,0.303l-0.868-0.84
		l0.133-0.307c0.535-1.068,1.271-2.139,2.207-2.826c0.469-0.459,1.069-0.842,1.737-0.842c0.402,0,0.734,0.152,1.068,0.535
		c0.269,0.307,0.402,0.764,0.402,1.223c0,0.992-0.332,2.291-0.533,3.287l-1.271,5.197c-0.133,0.688-0.534,2.063-0.534,2.674
		c0,0.08,0.065,0.154,0.065,0.229c0.068,0.074,0.135,0.074,0.201,0.074c0.334,0,0.736-0.305,1.004-0.457
		c0.603-0.459,1.336-1.604,1.738-2.293c0.735-1.146,1.403-2.293,1.938-3.44c0.672-1.449,1.207-3.438,1.605-5.119l0.334-1.453h2.674
		l-2.406,10.168c-0.133,0.611-0.469,1.986-0.469,2.676v0.152c0.068,0,0.201-0.152,0.269-0.152c0.268-0.305,1.069-1.604,1.271-1.988
		l0.201-0.305l0.936,0.84l-0.131,0.308c-0.604,1.065-1.34,2.291-2.277,3.131c-0.467,0.383-1.002,0.612-1.604,0.612
		c-0.402,0-0.736-0.075-1.004-0.456c-0.269-0.308-0.398-0.691-0.398-1.148c0-0.535,0.066-1.072,0.197-1.605
		C354.073,482.338,354.206,481.496,354.406,480.734L354.406,480.734z M363.234,479.814L363.234,479.814c0,0.305,0,0.612,0,0.995
		c0,0.841,0.201,1.527,0.736,2.216c0.467,0.534,1.069,0.842,1.735,0.842c0.603,0,1.14-0.152,1.675-0.383
		c0.866-0.535,1.873-1.453,2.539-2.142l0.268-0.229l0.67,1.067l-0.199,0.23c-1.606,1.912-3.748,3.897-6.221,3.897
		c-1.27,0-2.34-0.456-3.143-1.604c-0.668-1.072-1.07-2.219-1.07-3.518c0-1.835,0.535-3.591,1.271-5.195
		c0.804-1.605,1.806-3.06,3.144-4.051c1.203-0.918,2.539-1.529,4.012-1.529c0.803,0,1.672,0.152,2.273,0.842
		c0.469,0.533,0.805,1.146,0.805,1.908c0,1.072-0.404,2.063-0.939,2.83c-0.934,1.299-2.204,2.141-3.541,2.752
		C366.04,479.281,364.57,479.588,363.234,479.814L363.234,479.814z M376.877,475.918L376.877,475.918
		c0.801-1.455,1.737-2.982,2.674-3.975c0.733-0.769,1.672-1.529,2.742-1.529c0.534,0,1.004,0.229,1.336,0.688
		c0.336,0.461,0.469,1.07,0.469,1.685c0,0.84-0.133,1.832-0.332,2.674l-1.607,6.879c-0.065,0.305-0.266,1.072-0.266,1.377
		c0,0,0,0.076-0.066,0.152c0.066,0,0.134-0.152,0.197-0.152c0.535-0.537,1.072-1.301,1.475-1.988l0.197-0.305l0.938,0.688
		l-0.136,0.305c-0.666,1.146-1.471,2.445-2.475,3.209c-0.398,0.383-1.002,0.689-1.535,0.689c-0.401,0-0.735-0.152-1.004-0.457
		c-0.334-0.308-0.399-0.767-0.399-1.226c0-0.84,0.268-1.988,0.467-2.828l1.539-6.498c0.133-0.61,0.268-1.299,0.268-1.834
		c0-0.073,0-0.229-0.065-0.229c-0.068-0.076-0.138-0.15-0.201-0.15c-0.201,0-0.535,0.23-0.67,0.381
		c-0.804,0.535-1.472,1.455-2.007,2.295c-0.803,1.3-1.536,2.826-2.206,4.279c-0.4,0.916-0.736,1.912-1.005,2.904l-0.733,2.979
		h-2.676l2.541-10.625c0.135-0.457,0.401-1.68,0.401-2.141c0-0.15,0-0.229-0.135-0.379c-0.066-0.078-0.199-0.154-0.334-0.154
		c-0.133,0-0.334,0.076-0.469,0.076l-0.869,0.152l-0.201-1.297l5.484-1.226L376.877,475.918L376.877,475.918z M402.754,482.262
		L402.754,482.262c-0.802,1.148-1.738,2.293-2.875,3.058c-0.937,0.688-2.004,0.993-3.144,0.993c-1.203,0-2.34-0.383-3.143-1.375
		c-0.871-1.069-1.138-2.368-1.138-3.747c0-1.834,0.402-3.517,1.138-5.119c0.803-1.607,1.807-2.98,3.143-4.054
		c1.203-0.916,2.543-1.604,3.945-1.604c0.869,0,1.738,0.229,2.408,0.842c0.536,0.611,0.803,1.299,0.803,2.142
		c0,0.686-0.201,1.372-0.604,1.907c-0.268,0.461-0.668,0.767-1.137,0.767c-0.334,0-0.666-0.152-0.936-0.461
		c-0.269-0.306-0.334-0.685-0.334-1.066c0-0.307,0-0.537,0.133-0.766c0.067-0.23,0.268-0.537,0.471-0.688
		c0.064-0.154,0.269-0.305,0.269-0.459c0.063-0.076,0.063-0.152,0.063-0.152c0-0.153-0.063-0.229-0.133-0.307
		c-0.199-0.154-0.603-0.229-0.871-0.229c-0.869,0-1.672,0.459-2.338,1.069c-0.938,0.765-1.605,1.834-2.074,3.058
		c-0.67,1.528-1.068,3.131-1.068,4.813c0,0.842,0.134,1.758,0.668,2.371c0.468,0.611,1.138,0.838,1.873,0.838
		c0.603,0,1.269-0.227,1.806-0.533c0.803-0.534,1.604-1.45,2.139-2.217l0.269-0.305l0.868,0.918L402.754,482.262L402.754,482.262z
		 M416.865,475.918L416.865,475.918c0,1.756-0.334,3.438-1.067,5.043c-0.672,1.607-1.675,2.906-3.013,3.898
		c-1.135,0.92-2.473,1.453-3.811,1.453c-1.271,0-2.34-0.457-3.211-1.529c-0.869-1.068-1.271-2.445-1.271-3.898
		c0-1.834,0.468-3.44,1.138-5.043c0.803-1.604,1.805-2.906,3.143-3.975c1.137-0.842,2.406-1.453,3.813-1.453
		c1.204,0,2.271,0.535,3.073,1.604C416.531,473.09,416.865,474.463,416.865,475.918L416.865,475.918z M422.75,475.154
		L422.75,475.154c0.2-0.386,0.469-0.767,0.668-1.072c0.67-1.146,1.538-2.293,2.543-3.057c0.467-0.382,1.069-0.611,1.604-0.611
		c0.531,0,1.002,0.229,1.336,0.688c0.402,0.382,0.604,0.994,0.604,1.605c0,0.689-0.201,1.451-0.338,2.141l-0.267,1.07
		c0.801-1.605,1.808-3.133,2.877-4.279c0.601-0.688,1.402-1.225,2.271-1.225c0.535,0,0.936,0.229,1.271,0.688
		c0.4,0.461,0.467,1.146,0.467,1.834c0,0.689-0.065,1.378-0.268,2.064l-1.402,6.344c-0.135,0.535-0.467,1.758-0.467,2.217
		c0,0.074,0,0.074,0,0.154c0.064-0.08,0.199-0.154,0.199-0.229c0.533-0.535,1.004-1.146,1.402-1.834l0.135-0.308l1.004,0.767
		l-0.135,0.305c-0.334,0.611-0.804,1.301-1.203,1.834c-0.402,0.535-1.004,1.223-1.539,1.606c-0.4,0.306-0.803,0.457-1.269,0.457
		c-0.403,0-0.735-0.151-1.004-0.457c-0.27-0.385-0.403-0.766-0.403-1.225c0-0.916,0.336-2.369,0.534-3.287l1.205-5.199
		c0.134-0.534,0.402-1.375,0.402-1.985c0.064-0.152,0.064-0.381,0.064-0.533c0-0.078,0-0.305-0.064-0.385
		c0,0-0.068-0.076-0.135-0.076c-0.332,0-0.67,0.307-0.869,0.537c-1.406,1.604-2.543,3.742-3.41,5.729
		c-0.803,1.99-1.404,4.129-1.873,6.269l-0.065,0.229h-2.742l2.408-10.319c0.133-0.533,0.334-1.451,0.334-1.984
		c0-0.154,0-0.385-0.066-0.461c0-0.074-0.068-0.074-0.068-0.074c-0.266,0-0.532,0.15-0.733,0.308
		c-0.736,0.608-1.472,1.832-2.006,2.674c-0.736,1.223-1.404,2.521-1.873,3.897c-0.601,1.683-1.138,3.976-1.539,5.73l-0.064,0.229
		H417.6l2.543-11.004l0.334-1.379c0-0.076,0.068-0.307,0.068-0.383c0-0.15-0.068-0.229-0.136-0.379
		c-0.133-0.078-0.268-0.154-0.469-0.154s-0.67,0.154-0.867,0.229l-0.336,0.075l-0.268-1.372l5.416-1.226L422.75,475.154
		L422.75,475.154z M440.672,479.814L440.672,479.814c-0.066,0.305-0.066,0.612-0.066,0.995c0,0.841,0.201,1.527,0.736,2.216
		c0.465,0.534,1.067,0.842,1.805,0.842c0.533,0,1.137-0.152,1.672-0.383c0.801-0.535,1.805-1.453,2.539-2.142l0.268-0.229
		l0.604,1.067l-0.135,0.23c-1.605,1.912-3.812,3.897-6.22,3.897c-1.27,0-2.405-0.456-3.209-1.604
		c-0.67-1.072-1.004-2.219-1.004-3.518c0-1.835,0.47-3.591,1.271-5.195c0.731-1.605,1.805-3.06,3.143-4.051
		c1.205-0.918,2.474-1.529,3.945-1.529c0.801,0,1.674,0.152,2.273,0.842c0.536,0.533,0.805,1.146,0.805,1.908
		c0,1.072-0.338,2.063-0.938,2.83c-0.936,1.299-2.209,2.141-3.547,2.752C443.411,479.281,441.943,479.588,440.672,479.814
		L440.672,479.814z M454.245,475.994L454.245,475.994c0.871-1.605,1.873-3.209,2.943-4.355c0.533-0.537,1.271-1.225,1.939-1.225
		c0.401,0,0.733,0.152,1.002,0.457c0.198,0.305,0.27,0.768,0.27,1.225c0,0.765-0.137,1.529-0.471,2.217
		c-0.201,0.535-0.601,0.916-1.203,0.916c-0.266,0-0.533-0.151-0.736-0.381c-0.268-0.229-0.332-0.61-0.397-0.994v-0.151
		c-0.068,0-0.201,0-0.269,0.076c-0.268,0.153-0.735,0.916-0.938,1.147c-0.869,1.297-1.672,2.748-2.408,4.125
		c-0.334,0.765-0.668,1.529-0.869,2.371c-0.199,0.688-0.467,1.453-0.668,2.213l-0.469,2.295h-2.676l2.543-10.545
		c0.133-0.69,0.399-1.76,0.399-2.449c0-0.075-0.065-0.149-0.133-0.229c-0.068-0.076-0.268-0.152-0.402-0.152
		c-0.334,0-0.668,0.076-1.002,0.152l-0.336,0.078l-0.199-1.379l5.416-1.068L454.245,475.994L454.245,475.994z M174.588,472.018
		L174.588,472.018c-0.603,0-1.136,0.537-1.604,0.918c-1.002,1.07-1.738,2.523-2.273,3.978c-0.603,1.451-1.071,3.133-1.071,4.738
		c0,0.532,0.134,1.145,0.402,1.526c0.201,0.308,0.469,0.537,0.803,0.537c1.138,0,2.206-1.604,2.809-2.524
		c1.336-1.988,2.207-4.355,2.207-6.878c0-0.534-0.066-1.299-0.335-1.758C175.257,472.172,174.989,472.018,174.588,472.018
		L174.588,472.018z M212.907,472.018L212.907,472.018c-0.535,0-1.139,0.537-1.539,0.918c-1.004,1.07-1.806,2.523-2.342,3.978
		c-0.533,1.451-1.003,3.133-1.003,4.738c0,0.532,0.068,1.145,0.336,1.526c0.201,0.308,0.469,0.537,0.803,0.537
		c1.138,0,2.273-1.604,2.875-2.524c1.337-1.988,2.207-4.355,2.207-6.878c0-0.534-0.066-1.299-0.401-1.758
		C213.641,472.172,213.309,472.018,212.907,472.018L212.907,472.018z M227.886,474.006L227.886,474.006
		c0-0.535-0.134-1.07-0.401-1.451c-0.269-0.383-0.602-0.537-1.002-0.537c-1.338,0-2.607,2.064-3.21,3.212
		c-1.002,1.909-1.738,4.053-1.738,6.268c0,0.535,0.065,1.223,0.4,1.682c0.202,0.308,0.401,0.457,0.736,0.457
		c1.137,0,2.674-2.52,3.142-3.438C226.816,478.363,227.886,476.145,227.886,474.006L227.886,474.006z M269.012,474.77
		L269.012,474.77c0-0.688-0.066-1.448-0.535-2.063c-0.333-0.459-0.733-0.689-1.271-0.689c-1.538,0-2.607,1.914-3.277,3.287
		c-1.002,2.064-1.605,4.283-1.605,6.652c0,0.686,0.134,1.527,0.536,2.137c0.402,0.461,0.804,0.689,1.337,0.689
		c1.538,0,2.608-1.908,3.209-3.211C268.477,479.432,269.012,477.217,269.012,474.77L269.012,474.77z M302.247,474.006
		L302.247,474.006c0-0.535-0.066-1.07-0.401-1.451c-0.267-0.383-0.601-0.537-1.001-0.537c-1.339,0-2.542,2.064-3.145,3.212
		c-1.003,1.909-1.737,4.053-1.737,6.268c0,0.535,0.066,1.223,0.333,1.682c0.202,0.308,0.469,0.457,0.804,0.457
		c1.137,0,2.608-2.52,3.144-3.438C301.245,478.363,302.247,476.145,302.247,474.006L302.247,474.006z M310.137,478.209
		L310.137,478.209c0.869-0.229,1.807-0.457,2.608-0.916c0.869-0.459,1.738-1.07,2.273-1.988c0.4-0.61,0.803-1.373,0.803-2.141
		c0-0.305-0.065-0.609-0.268-0.84c-0.201-0.229-0.469-0.308-0.803-0.308c-1.005,0-1.938,0.843-2.607,1.685
		C311.141,474.848,310.538,476.527,310.137,478.209L310.137,478.209z M335.75,484.094L335.75,484.094
		c0.602,0.383,1.271,0.689,1.938,0.689c0.805,0,1.605-0.381,2.207-0.916c1.004-0.842,1.605-2.217,2.074-3.439
		c0.604-1.53,0.871-3.135,0.871-4.817c0-0.763-0.068-1.527-0.472-2.14c-0.334-0.457-0.666-0.686-1.203-0.686
		c-0.803,0-1.538,0.455-2.141,1.067c-0.869,0.841-1.338,1.988-1.604,3.212L335.75,484.094L335.75,484.094z M363.502,478.209
		L363.502,478.209c0.868-0.229,1.805-0.457,2.606-0.916c0.871-0.459,1.738-1.07,2.275-1.988c0.399-0.61,0.731-1.373,0.731-2.141
		c0-0.305-0.065-0.609-0.266-0.84c-0.133-0.229-0.467-0.308-0.734-0.308c-1.004,0-1.938,0.843-2.608,1.685
		C364.506,474.848,363.902,476.527,363.502,478.209L363.502,478.209z M414.057,474.77L414.057,474.77
		c0-0.688-0.135-1.448-0.533-2.063c-0.336-0.459-0.803-0.689-1.34-0.689c-1.471,0-2.607,1.914-3.275,3.287
		c-0.938,2.064-1.539,4.283-1.539,6.652c0,0.686,0.066,1.527,0.535,2.137c0.334,0.461,0.804,0.689,1.338,0.689
		c1.472,0,2.609-1.908,3.211-3.211C413.454,479.432,414.057,477.217,414.057,474.77L414.057,474.77z M440.872,478.209
		L440.872,478.209c0.869-0.229,1.806-0.457,2.607-0.916c0.869-0.459,1.74-1.07,2.342-1.988c0.4-0.61,0.734-1.373,0.734-2.141
		c0-0.305-0.068-0.609-0.269-0.84c-0.198-0.229-0.467-0.308-0.735-0.308c-1.004,0-1.938,0.843-2.607,1.685
		C441.875,474.848,441.273,476.527,440.872,478.209L440.872,478.209z"/>
</g>
</svg>
